<svg width="102" height="37" viewBox="0 0 102 37" fill="none" xmlns="http://www.w3.org/2000/svg">
<g clip-path="url(#clip0_364_121)">
<path fill-rule="evenodd" clip-rule="evenodd" d="M14.5194 8.48531L101.994 1.13294e-05C102.233 -0.0235589 95.2837 36.7382 74.6906 36.7382H14.5194C6.53532 36.7382 0 30.3821 0 22.6117C0 14.8414 6.58309 9.26317 14.5194 8.48531Z" fill="#0E17FF"/>
<path fill-rule="evenodd" clip-rule="evenodd" d="M75.2562 21.8499C73.0274 24.2305 73.1866 27.9311 75.5826 30.1309C77.9627 32.3072 81.6642 32.1894 83.901 29.8795L82.102 28.2375C81.1706 29.1881 79.8094 29.4867 78.6075 29.1331L82.8582 24.5684V24.5762L84.6174 22.6906C84.3547 22.2742 84.0284 21.8813 83.6463 21.5278C81.2343 19.3436 77.485 19.485 75.2562 21.8499ZM76.5378 27.4675C75.8453 26.2104 76.0124 24.5998 77.0552 23.492C78.082 22.3842 79.6901 22.1091 81.0114 22.6749L76.5378 27.4675Z" fill="white"/>
<path fill-rule="evenodd" clip-rule="evenodd" d="M70.7664 31.7021L68.251 26.6109L66.7863 28.1037V31.7021H63.7296V16.2322H66.7863V24.686L70.7982 20.082L74.5077 20.0976L70.4162 24.5367L74.1654 31.7021H70.7664Z" fill="white"/>
<path fill-rule="evenodd" clip-rule="evenodd" d="M51.4861 31.7019H54.4951V24.5679C54.519 23.3974 55.4503 22.4938 56.708 22.4938C57.9021 22.4938 58.8334 23.3423 58.8334 24.5679V31.7019H61.8662V24.1987C61.8662 20.0503 56.6523 19.0054 54.4951 20.6317V20.0975H51.4861V31.7019Z" fill="white"/>
<path fill-rule="evenodd" clip-rule="evenodd" d="M43.1284 19.9958C39.8488 19.9958 37.1901 22.62 37.1901 25.857C37.1901 29.0861 39.8488 31.7102 43.1284 31.7102C44.4179 31.7102 45.6199 31.2938 46.5911 30.5946V31.7024H49.5682V20.098H46.5911V21.1036C45.6199 20.4044 44.4179 19.9958 43.1284 19.9958ZM39.6338 25.857C39.6338 23.9478 41.202 22.4 43.1284 22.4C44.9433 22.4 46.4398 23.7828 46.5911 25.5348V26.1634C46.4398 27.9154 44.9433 29.2983 43.1284 29.2983C41.202 29.2983 39.6338 27.7583 39.6338 25.857Z" fill="white"/>
<path fill-rule="evenodd" clip-rule="evenodd" d="M30.2013 31.6939V20.1053H33.3933V21.2838C34.2211 20.2624 35.0331 20.0503 36.2909 20.0503C36.6888 20.0503 37.055 20.0974 37.3654 20.1838L37.3496 22.7215C36.2112 22.3523 34.858 22.8787 34.0938 23.9551C33.6719 24.5208 33.3933 25.2435 33.3933 26.1943V31.6939H30.2013Z" fill="white"/>
<path fill-rule="evenodd" clip-rule="evenodd" d="M25.5921 23.9472H28.41V27.1607C28.41 27.7656 28.3225 28.3313 28.1394 28.8813C27.9643 29.4234 27.6857 29.9105 27.2956 30.327C26.9215 30.7434 26.4439 31.0812 25.8548 31.3326C25.2737 31.5762 24.5812 31.7018 23.7772 31.7018C22.9334 31.7018 22.2171 31.5762 21.628 31.3326C21.0389 31.0812 20.5533 30.7512 20.1712 30.3427C19.7892 29.9263 19.5106 29.4392 19.3434 28.8892C19.1762 28.3392 19.0807 27.7578 19.0807 27.145V17.0176H22.0658V20.0818H28.41V22.6274L22.0658 22.6195V26.8464C22.0658 27.5614 22.209 28.1114 22.4797 28.512C22.7503 28.897 23.1881 29.0934 23.825 29.0934C24.422 29.0934 24.8677 28.9049 25.1623 28.5199C25.4489 28.135 25.5921 27.5928 25.5921 26.8857V23.9472Z" fill="white"/>
<path fill-rule="evenodd" clip-rule="evenodd" d="M14.6151 20.0978C14.4956 19.4693 14.217 18.9822 13.7872 18.6443C13.2936 18.2672 12.5613 18.0787 11.5822 18.0787C10.6588 18.0787 9.96632 18.2358 9.4966 18.5422C9.03498 18.8486 8.80413 19.2886 8.80413 19.87C8.80413 20.3571 8.98721 20.7578 9.35336 21.0407C9.71951 21.3314 10.3404 21.5907 11.2081 21.8028C12.0917 22.0149 12.9355 22.2349 13.7394 22.4392C14.5355 22.6434 15.22 22.8791 15.8012 23.1384C16.1354 23.2956 16.4539 23.4684 16.7564 23.6648C17.0509 23.8613 17.3056 24.1127 17.5205 24.4034C17.7434 24.694 17.9186 25.0398 18.0379 25.4405C18.1653 25.8333 18.229 26.3047 18.229 26.8468C18.229 27.6797 18.0697 28.4103 17.7673 29.0153C17.4648 29.6203 17.0429 30.123 16.4857 30.5238C15.9365 30.9245 15.2757 31.2151 14.5275 31.4116C13.7713 31.6001 12.9513 31.7023 12.0439 31.7023C11.0807 31.7023 10.2051 31.5923 9.40907 31.388C8.61305 31.1759 7.92847 30.8616 7.35534 30.4295C6.7822 29.9973 6.33644 29.4631 6.0021 28.8346C5.72349 28.2767 5.55634 27.6246 5.50061 26.9018H8.64489C8.7404 27.5382 9.05085 28.0489 9.58421 28.4417C10.2051 28.8896 11.025 29.1252 12.0678 29.1252C13.0309 29.1252 13.7713 28.9367 14.2887 28.5596C14.814 28.1746 15.0767 27.6482 15.0767 26.9646C15.0767 26.7289 15.0369 26.5168 14.9653 26.344C14.9016 26.1475 14.7743 25.9826 14.5991 25.8175C14.424 25.6526 14.1773 25.5111 13.8668 25.3855C13.5564 25.2519 13.1583 25.1341 12.6807 25.024C11.7096 24.8119 10.8977 24.6234 10.2369 24.4583C9.57628 24.2934 8.97919 24.0969 8.42996 23.8533C7.59415 23.4841 6.95733 23.0048 6.50359 22.4156C6.06579 21.8263 5.8429 21.0407 5.8429 20.0821C5.8429 19.3829 5.9623 18.7543 6.19315 18.1808C6.424 17.5994 6.7822 17.1045 7.25185 16.688C7.72947 16.2794 8.32648 15.9652 9.02696 15.7295C9.73547 15.5017 10.5553 15.3838 11.5105 15.3838C12.4817 15.3838 13.3653 15.5017 14.1215 15.7531C14.8857 15.9966 15.5225 16.3423 16.0479 16.7901C16.5653 17.2302 16.9633 17.7644 17.2578 18.3773C17.5046 18.8958 17.6479 19.4772 17.7115 20.0978H14.6151Z" fill="white"/>
<path d="M71.9732 13.885C71.3569 13.885 70.8321 13.7465 70.3988 13.4694C69.9716 13.1923 69.6726 12.8129 69.5017 12.331L70.4079 11.807C70.6642 12.5177 71.1952 12.8731 72.0007 12.8731C72.3974 12.8731 72.6933 12.7978 72.8886 12.6472C73.09 12.4906 73.1907 12.2888 73.1907 12.0419C73.1907 11.7829 73.0839 11.5871 72.8703 11.4546C72.6567 11.3161 72.2784 11.1655 71.7352 11.0029C71.4301 10.9125 71.183 10.8282 70.9938 10.7499C70.8046 10.6716 70.6032 10.5632 70.3896 10.4246C70.1821 10.2801 70.0265 10.1024 69.9228 9.89159C69.819 9.68078 69.7672 9.43382 69.7672 9.15073C69.7672 8.59057 69.9686 8.14786 70.3713 7.8226C70.7741 7.49132 71.2592 7.32568 71.8268 7.32568C72.3394 7.32568 72.7879 7.44916 73.1724 7.69611C73.5569 7.94307 73.8528 8.28338 74.0603 8.71706L73.1724 9.22301C72.9039 8.63273 72.4553 8.33759 71.8268 8.33759C71.5217 8.33759 71.2776 8.40987 71.0945 8.55443C70.9114 8.69296 70.8199 8.88269 70.8199 9.12363C70.8199 9.35853 70.9114 9.54525 71.0945 9.68379C71.2837 9.8163 71.6223 9.95785 72.1105 10.1084C72.3547 10.1867 72.5316 10.247 72.6415 10.2891C72.7574 10.3253 72.9161 10.3855 73.1175 10.4698C73.325 10.5541 73.4806 10.6385 73.5843 10.7228C73.6881 10.8071 73.7979 10.9125 73.9139 11.039C74.0359 11.1655 74.1213 11.3101 74.1702 11.4727C74.219 11.6353 74.2434 11.819 74.2434 12.0238C74.2434 12.596 74.0329 13.0508 73.6118 13.3881C73.1968 13.7194 72.6506 13.885 71.9732 13.885ZM78.9045 7.44314H79.9571V13.7676H78.9045V11.03H76.1583V13.7676H75.1056V7.44314H76.1583V10.0361H78.9045V7.44314ZM86.593 12.9363C85.9522 13.5688 85.168 13.885 84.2404 13.885C83.3129 13.885 82.5256 13.5688 81.8788 12.9363C81.238 12.2979 80.9176 11.5209 80.9176 10.6053C80.9176 9.68981 81.238 8.91582 81.8788 8.28338C82.5256 7.64492 83.3129 7.32568 84.2404 7.32568C85.168 7.32568 85.9522 7.64492 86.593 8.28338C87.2397 8.91582 87.5631 9.68981 87.5631 10.6053C87.5631 11.5209 87.2397 12.2979 86.593 12.9363ZM82.6202 12.2316C83.0596 12.6593 83.5997 12.8731 84.2404 12.8731C84.8812 12.8731 85.4182 12.6593 85.8515 12.2316C86.2909 11.798 86.5106 11.2559 86.5106 10.6053C86.5106 9.95483 86.2909 9.41575 85.8515 8.9881C85.4182 8.55443 84.8812 8.33759 84.2404 8.33759C83.5997 8.33759 83.0596 8.55443 82.6202 8.9881C82.1869 9.41575 81.9703 9.95483 81.9703 10.6053C81.9703 11.2559 82.1869 11.798 82.6202 12.2316ZM90.8855 7.44314C91.4897 7.44314 91.9927 7.6419 92.3955 8.03944C92.8043 8.43697 93.0092 8.93088 93.0092 9.52116C93.0092 10.1054 92.8043 10.5993 92.3955 11.0029C91.9927 11.4004 91.4897 11.5992 90.8855 11.5992H89.5761V13.7676H88.5238V7.44314H90.8855ZM90.8855 10.6234C91.1968 10.6234 91.4531 10.521 91.6545 10.3162C91.8558 10.1054 91.9561 9.84039 91.9561 9.52116C91.9561 9.20193 91.8558 8.93992 91.6545 8.73513C91.4531 8.52431 91.1968 8.4189 90.8855 8.4189H89.5761V10.6234H90.8855Z" fill="white"/>
</g>
<defs>
<clipPath id="clip0_364_121">
<rect width="102" height="37" fill="white"/>
</clipPath>
</defs>
</svg>
