<svg width="24" height="18" viewBox="0 0 24 18" fill="none" xmlns="http://www.w3.org/2000/svg">
<path fill-rule="evenodd" clip-rule="evenodd" d="M23.76 4.167C23.76 4.167 23.5253 2.50144 22.806 1.76812C21.8933 0.805124 20.8703 0.800624 20.4015 0.744749C17.043 0.500061 12.0052 0.500061 12.0052 0.500061H11.9948C11.9948 0.500061 6.957 0.500061 3.5985 0.744749C3.129 0.800624 2.10675 0.805124 1.19325 1.76812C0.474 2.50162 0.24 4.167 0.24 4.167C0.24 4.167 0 6.12337 0 8.07881V9.91275C0 11.8689 0.24 13.8246 0.24 13.8246C0.24 13.8246 0.474 15.4901 1.19325 16.2234C2.10675 17.1864 3.306 17.1562 3.84 17.2568C5.76 17.4426 12 17.4999 12 17.4999C12 17.4999 17.043 17.4924 20.4015 17.2477C20.8703 17.1911 21.8933 17.1866 22.806 16.2236C23.5253 15.4901 23.76 13.8247 23.76 13.8247C23.76 13.8247 24 11.8691 24 9.91275V8.07881C24 6.12337 23.76 4.167 23.76 4.167ZM9.522 12.135L9.52125 5.34394L16.0057 8.75119L9.522 12.135Z" fill="#CE1312"/>
</svg>
